<?xml version="1.0" standalone="no"?>
<!DOCTYPE svg PUBLIC "-//W3C//DTD SVG 20010904//EN"
 "http://www.w3.org/TR/2001/REC-SVG-20010904/DTD/svg10.dtd">
<svg version="1.0" xmlns="http://www.w3.org/2000/svg"
 width="657.000000pt" height="657.000000pt" viewBox="0 0 657.000000 657.000000"
 preserveAspectRatio="xMidYMid meet">
<metadata>
Created by potrace 1.14, written by Peter Selinger 2001-2017
</metadata>
<g transform="translate(0.000000,657.000000) scale(0.100000,-0.100000)"
fill="#000000" stroke="none">
<path d="M1549 4924 c-14 -141 -17 -511 -5 -634 12 -116 15 -141 25 -200 5
-30 7 -58 4 -62 -2 -5 1 -8 8 -8 7 0 10 -2 7 -5 -3 -4 -1 -25 4 -48 5 -23 11
-49 13 -58 6 -28 27 -103 35 -124 4 -11 22 -60 40 -110 37 -102 106 -237 156
-308 19 -26 34 -51 34 -56 0 -5 3 -11 8 -13 8 -3 82 -94 82 -101 0 -2 -12 -3
-27 -1 -55 7 -224 25 -258 27 -11 1 -22 0 -24 -3 -4 -5 12 -66 29 -105 112
-275 272 -469 518 -628 38 -24 78 -48 90 -51 11 -4 26 -14 34 -23 9 -12 10
-15 0 -9 -7 4 -24 10 -39 12 -15 3 -59 12 -98 21 -38 9 -88 18 -110 20 -34 3
-38 2 -25 -9 8 -7 27 -29 42 -50 15 -20 35 -43 44 -52 8 -9 13 -16 11 -16 -11
0 167 -172 229 -222 118 -95 328 -218 414 -243 14 -4 30 -11 35 -15 23 -17
264 -86 331 -95 20 -2 44 -6 53 -9 60 -17 323 -40 441 -39 98 1 140 16 190 66
53 53 44 36 149 256 17 36 31 69 31 74 0 5 6 23 14 40 28 62 67 225 82 342 15
115 7 465 -11 495 -2 3 -6 26 -10 50 -8 53 -8 52 -24 110 -21 78 -43 143 -68
198 -12 29 -23 57 -23 61 0 28 -174 321 -191 321 -5 0 -9 4 -9 10 0 39 -243
269 -376 357 -11 7 -36 24 -57 38 -21 14 -40 25 -43 25 -3 0 -19 9 -35 21 -16
11 -35 22 -42 23 -7 1 -32 12 -56 25 -76 40 -276 107 -374 126 -9 2 -20 6 -25
8 -4 3 -23 8 -43 11 -113 18 -358 86 -509 141 -89 33 -319 157 -328 178 -2 4
-8 7 -14 7 -11 0 -145 91 -177 120 -9 8 -33 27 -53 42 -20 15 -42 33 -50 40
-29 28 -48 40 -49 32z m611 -694 c28 -16 53 -30 57 -30 17 0 345 -209 356
-227 4 -7 14 -13 22 -13 7 0 15 -3 17 -7 2 -5 21 -21 43 -37 237 -174 534
-486 697 -734 32 -48 63 -94 69 -102 53 -78 215 -402 263 -526 48 -124 87
-235 92 -261 2 -12 9 -35 15 -50 6 -16 12 -35 14 -43 2 -8 8 -35 15 -60 7 -25
14 -53 16 -62 2 -10 6 -26 8 -37 2 -10 9 -36 15 -57 28 -102 5 -135 -104 -151
-69 -10 -197 -6 -305 11 -14 2 -47 7 -75 11 -27 4 -59 9 -70 11 -11 2 -45 8
-75 14 -30 5 -68 12 -85 15 -16 4 -38 7 -47 8 -10 1 -14 4 -10 8 4 4 50 10
102 13 52 4 109 8 125 10 17 2 71 7 120 11 50 4 101 9 115 10 14 2 33 3 43 4
15 1 17 8 13 54 -5 56 -35 237 -41 247 -2 4 -6 20 -9 36 -9 49 -65 185 -101
244 -82 134 -239 247 -400 286 -16 4 -34 8 -40 10 -39 11 -136 30 -204 39 -19
3 -46 7 -60 10 -41 7 -92 14 -141 20 -44 4 -115 14 -155 20 -11 1 -47 6 -80
10 -71 9 -107 24 -44 19 24 -2 87 -6 139 -9 52 -3 138 -8 190 -11 102 -6 171
-9 400 -19 80 -3 160 -8 178 -10 30 -3 32 -2 26 23 -24 111 -104 275 -182 372
-174 218 -443 377 -802 474 l-55 15 105 -4 c105 -5 308 -8 323 -6 7 1 -17 24
-93 87 -91 77 -262 222 -310 264 -16 13 -57 48 -130 109 -36 29 -19 26 40 -9z"/>
<path d="M4990 3543 c-77 -66 -290 -196 -290 -177 0 3 -6 2 -12 -4 -15 -12
-139 -51 -187 -58 -19 -3 -45 -10 -58 -15 -13 -5 -23 -7 -23 -4 0 5 -96 -22
-125 -35 -11 -5 -44 -19 -73 -31 -38 -16 -51 -26 -48 -38 4 -14 19 -88 30
-146 5 -25 17 -126 22 -180 5 -49 4 -286 0 -338 -4 -36 -12 -97 -22 -162 -17
-106 -60 -274 -93 -357 l-10 -27 52 4 c29 3 67 9 85 14 17 5 32 7 32 4 0 -3 7
0 15 7 8 7 15 10 15 7 0 -4 18 0 40 8 22 8 42 15 45 15 3 0 34 14 70 31 103
48 228 149 300 243 31 41 28 42 -58 22 -31 -8 -55 -10 -51 -5 3 5 11 9 18 9
16 0 144 94 167 124 9 11 29 35 43 51 26 29 87 147 101 194 l7 23 -68 -7 c-38
-4 -72 -9 -76 -11 -14 -9 -8 14 7 30 8 8 15 19 15 25 0 6 4 11 9 11 11 0 74
119 100 190 28 77 40 127 57 235 8 46 11 327 4 354 l-6 24 -34 -30z"/>
</g>
</svg>
